<svg width="251" height="250" viewBox="0 0 251 250" fill="none" xmlns="http://www.w3.org/2000/svg">
<g id="logo">
<g id="mix">
<path id="letter" d="M89.5115 71.1942H164.811V92.1942H111.261V115.744H158.661V136.744H111.261V160.594H166.911V181.594H89.5115V71.1942Z" fill="#64FFDA"/>
<path id="subtract" fill-rule="evenodd" clip-rule="evenodd" d="M1.09821 111.685C7.1729 52.8981 53.8969 6.17414 112.684 0.0995113V15.1918C62.1896 21.135 22.1338 61.1908 16.1905 111.685H1.09821ZM0.428848 124.654C0.428838 124.674 0.428833 124.695 0.428833 124.715C0.428833 124.736 0.428838 124.756 0.428848 124.776L0.428848 124.654ZM0.998678 136.742C6.64273 196 53.5632 243.222 112.684 249.331V234.238C61.8559 228.256 21.6048 187.708 16.0771 136.742H0.998678ZM235.35 136.742C229.786 188.043 189.042 228.788 137.741 234.352V249.43C197.333 243.754 244.753 196.335 250.429 136.742H235.35ZM250.329 111.685C244.22 52.5644 196.999 5.64409 137.741 0V15.0784C188.707 20.6062 229.254 60.8572 235.237 111.685H250.329ZM125.714 250L125.625 250H125.802L125.714 250Z" fill="#64FFDA"/>
</g>
</g>
</svg>
